<svg t="1614841739109" class="icon" viewBox="0 0 2304 1024" version="1.1" xmlns="http://www.w3.org/2000/svg" p-id="2127" width="200" height="44.44"><path d="M512 0h1280a512 512 0 1 1 0 1024H0V512a512 512 0 0 1 512-512z" fill="#FFDDDD" p-id="2128"></path><path d="M350.464 768L418.56 415.424 581.76 768h87.168L768 256h-94.528L605.312 608.576 442.56 256H355.072L256 768h94.528-0.064z m820.288-93.632h-287.36l23.488-117.76h274.112l18.688-93.632h-274.432l22.528-113.344h283.52L1250.112 256h-380.608L768 768h384l18.752-93.632zM1449.6 768l153.152-366.848L1627.52 768h101.504L1945.6 256h-91.328l-159.296 391.68-24.96-391.68h-90.688l-162.688 394.24-24.32-394.24H1305.6l38.144 512h105.792z" fill="#FF5453" p-id="2129"></path></svg>